Coordinates
version=1
nRows=26
nColumns=24
inDegrees=yes

Units are S.I. units (second, meters, Newtons, ...)
Angles are in degrees.

endheader
time	pelvis_tilt	pelvis_list	pelvis_rotation	pelvis_tx	pelvis_ty	pelvis_tz	hip_flexion_r	hip_adduction_r	hip_rotation_r	knee_angle_r	ankle_angle_r	subtalar_angle_r	mtp_angle_r	hip_flexion_l	hip_adduction_l	hip_rotation_l	knee_angle_l	ankle_angle_l	subtalar_angle_l	mtp_angle_l	lumbar_extension	lumbar_bending	lumbar_rotation
      4.39500000	     16.48370095	     -0.65548781	      2.35917403	      0.19044717	      0.96864254	      0.01940335	    -15.77353876	      1.67939245	      0.11689588	     -0.97297980	     12.53017992	      3.23588276	     28.88157537	    -11.03658226	    -11.01366798	    -11.71937138	    -51.26568052	      2.17235751	      1.31869183	     43.17300322	    -25.64667713	      5.74524369	     -2.17524662
      4.40000000	     16.35810388	     -0.54676072	      2.38094779	      0.19458693	      0.96870144	      0.01970647	    -16.00454058	      1.60677842	      0.00858962	     -0.80504042	     12.69686413	      3.26171954	     28.86498580	    -10.30489618	    -10.97212523	    -11.73844136	    -51.32340101	      2.89370360	      1.10103089	     43.14139492	    -25.57457204	      5.64767081	     -2.19299032
      4.40500000	     16.16115966	     -0.47675911	      2.40839213	      0.19866595	      0.96860737	      0.02003116	    -16.13978014	      1.57237618	     -0.03647215	     -0.66237772	     12.90153445	      3.30643820	     28.79900744	     -9.47612618	    -10.97376581	    -11.75960164	    -51.37341700	      3.61246019	      1.09799128	     43.00208126	    -25.43068584	      5.58135541	     -2.18984146
      4.41000000	     15.97604608	     -0.40594806	      2.41770552	      0.20274231	      0.96850722	      0.02033777	    -16.27770743	      1.53105019	     -0.09087500	     -0.53525073	     13.10036145	      3.35083476	     28.68812755	     -8.68628793	    -10.95483626	    -11.80818939	    -51.33757344	      4.35165209	      1.19303235	     42.77137911	    -25.29978874	      5.50911180	     -2.16082390
      4.41500000	     15.75719785	     -0.33762981	      2.39462254	      0.20675441	      0.96833981	      0.02063147	    -16.33396522	      1.47770661	     -0.13130931	     -0.49903238	     13.44563433	      3.47326922	     27.56462686	     -7.87251223	    -10.90981748	    -11.89339186	    -51.25499074	      5.17705472	      1.37405712	     40.39601632	    -25.14356168	      5.42798773	     -2.10562318
      4.42000000	     15.63677913	     -0.24957333	      2.40275023	      0.21087514	      0.96828476	      0.02087383	    -16.54771243	      1.41669845	     -0.24893772	     -0.36508839	     13.60159710	      3.55756189	     27.53878295	     -7.20902742	    -10.84439726	    -11.96524884	    -51.02512149	      5.89476080	      1.67063638	     40.39771387	    -25.08012660	      5.33724297	     -2.08555603
      4.42500000	     15.44007020	     -0.19367022	      2.38723013	      0.21490978	      0.96808771	      0.02112067	    -16.62943051	      1.37479613	     -0.32751343	     -0.31528228	     13.84511341	      3.68462950	     27.49197168	     -6.45372503	    -10.79446999	    -12.06909026	    -50.77489001	      6.57406618	      1.92399259	     40.33522809	    -24.94411042	      5.26864940	     -2.01461773
      4.43000000	     15.23171552	     -0.18932615	      2.38183308	      0.21892380	      0.96782275	      0.02132902	    -16.68621838	      1.38534931	     -0.42197707	     -0.28193110	     14.10480844	      3.90968514	     27.33925594	     -5.68546400	    -10.78624912	    -12.16367417	    -50.48091905	      7.26275530	      2.19543318	     40.09484823	    -24.79585264	      5.25795523	     -1.91507445
      4.43500000	     15.06534689	     -0.10462041	      2.34254687	      0.22298163	      0.96763764	      0.02153985	    -16.78903750	      1.30302752	     -0.50338917	     -0.26116160	     14.38438270	      4.03050322	     27.24172101	     -5.02309231	    -10.66490957	    -12.30262470	    -50.03686441	      7.85521033	      2.48814137	     39.95005820	    -24.69123980	      5.15007419	     -1.84212155
      4.44000000	     14.90656201	     -0.07261078	      2.31590190	      0.22701695	      0.96741624	      0.02166511	    -16.85996768	      1.26797958	     -0.70759801	     -0.33306944	     14.89337880	      4.63560926	     25.16939669	     -4.36700816	    -10.58422916	    -12.43334006	    -49.58026943	      8.64343664	      2.93234965	     36.96649390	    -24.59859986	      5.10955511	     -1.72633863
      4.44500000	     14.72693060	     -0.03766135	      2.27968883	      0.23105334	      0.96715799	      0.02183878	    -16.93240386	      1.23367225	     -0.76267211	     -0.33249368	     15.14736456	      4.72371306	     25.15327580	     -3.71116217	    -10.49012779	    -12.57651098	    -49.01551813	      9.19645163	      3.25633045	     36.98161070	    -24.47986430	      5.05249291	     -1.61692518
      4.45000000	     14.55738797	     -0.04083030	      2.25157084	      0.23507961	      0.96686667	      0.02195736	    -16.98634866	      1.23510050	     -0.90579302	     -0.39031094	     15.45112479	      5.05181002	     25.03391857	     -3.07322785	    -10.42502356	    -12.72941926	    -48.40195230	      9.76237856	      3.53855150	     36.85359121	    -24.37368442	      5.04339284	     -1.49244273
      4.45500000	     14.41477504	      0.01121088	      2.18058763	      0.23910435	      0.96664565	      0.02211165	    -17.07593648	      1.16619311	     -0.96427278	     -0.43352827	     15.75965253	      5.24059624	     24.97634949	     -2.51880650	    -10.27329585	    -12.91289846	    -47.65146216	     10.21162594	      3.83902365	     36.79300870	    -24.30110965	      4.95753391	     -1.33254752
      4.46000000	     14.28873490	      0.06733196	      2.18166169	      0.24316103	      0.96643108	      0.02205395	    -17.13803024	      1.10272962	     -1.34052434	     -0.59840510	     16.22101378	      5.91010451	     24.20773938	     -1.98224923	    -10.08793873	    -13.00402079	    -46.83668872	     10.69690697	      4.10092055	     36.00711389	    -24.23670717	      4.90490206	     -1.25653032
      4.46500000	     14.15907726	      0.06653929	      2.08980391	      0.24717176	      0.96618179	      0.02219215	    -17.19998047	      1.07404138	     -1.42478770	     -0.73017910	     16.70164344	      6.39778642	     22.49694190	     -1.47890038	     -9.97310194	    -13.23012550	    -45.97506846	     11.22928674	      4.52552522	     34.52591292	    -24.18034512	      4.86798944	     -1.03221784
      4.47000000	     14.05163613	      0.08806384	      2.01493694	      0.25118764	      0.96595246	      0.02231250	    -17.31561199	      1.03274810	     -1.44731309	     -0.78976313	     16.98041408	      6.51939972	     22.49197298	     -1.02395255	     -9.82228076	    -13.43816676	    -45.00741836	     11.61157314	      4.88267924	     34.53896062	    -24.14705140	      4.81024024	     -0.85397821
      4.47500000	     13.97120186	      0.09639912	      1.93084236	      0.25519473	      0.96577448	      0.02239547	    -17.40749700	      0.99671551	     -1.60338078	     -0.96044388	     17.30405812	      6.92272353	     22.43837168	     -0.63025612	     -9.66916742	    -13.65288537	    -43.94909981	     11.97523788	      5.28370538	     34.49989826	    -24.14500317	      4.76648955	     -0.64249336
      4.48000000	     13.90952310	      0.14726761	      1.88418542	      0.25926948	      0.96560065	      0.02237132	    -17.54656130	      0.92057304	     -1.85141998	     -1.09436001	     17.70898216	      7.46933406	     22.19474909	     -0.28035049	     -9.44725183	    -13.82403777	    -42.80510503	     12.32623125	      5.61808127	     34.34240125	    -24.15253864	      4.69360959	     -0.50675854
      4.48500000	     13.83096540	      0.16749763	      1.77451913	      0.26325038	      0.96542626	      0.02246605	    -17.62439377	      0.86200526	     -1.93714470	     -1.29246051	     18.04123592	      7.76966338	     22.03461882	      0.05333311	     -9.25692955	    -14.06759583	    -41.58036220	     12.59315411	      6.06260469	     34.26443101	    -24.15812418	      4.62310689	     -0.27805851
      4.49000000	     13.80649170	      0.24111863	      1.73194714	      0.26730935	      0.96530146	      0.02237092	    -17.79288011	      0.75662056	     -2.19408838	     -1.45351883	     18.47033870	      8.35301939	     21.56241341	      0.30360113	     -8.97643830	    -14.20422559	    -40.25771607	     12.88928229	      6.48089097	     34.04283255	    -24.20791427	      4.52900095	     -0.14882302
      4.49500000	     13.73139683	      0.25358884	      1.60176650	      0.27127841	      0.96511845	      0.02247421	    -17.85919363	      0.69838110	     -2.24644813	     -1.67401725	     18.81057462	      8.60819901	     21.34671856	      0.57741480	     -8.78134036	    -14.49166637	    -38.88428426	     13.09642864	      7.02027400	     33.97436298	    -24.22043688	      4.45543746	      0.11191494
      4.50000000	     13.67726680	      0.31905487	      1.54108462	      0.27529860	      0.96494689	      0.02237122	    -17.94490794	      0.58955291	     -2.49242440	     -1.95241695	     19.49420742	      9.31886961	     18.37918063	      0.80656294	     -8.49220025	    -14.64948004	    -37.41966855	     13.36136637	      7.60048577	     33.06674151	    -24.24271628	      4.35910963	      0.25194859
      4.50500000	     13.65149854	      0.36331200	      1.41657073	      0.27928330	      0.96481867	      0.02240089	    -18.07796124	      0.49402264	     -2.54030948	     -2.14876236	     19.80392521	      9.57554034	     18.38328282	      0.96094439	     -8.23554569	    -14.92014481	    -35.87240277	     13.52182610	      8.21177386	     33.10061914	    -24.30763856	      4.25514916	      0.48206929
      4.51000000	     13.63516147	      0.42414386	      1.30935269	      0.28330445	      0.96469337	      0.02236438	    -18.21401211	      0.38101614	     -2.65500247	     -2.37301876	     20.15272608	      9.92943197	     18.34570478	      1.07083023	     -7.94572159	    -15.16541380	    -34.23356936	     13.66204673	      8.87136075	     33.14341571	    -24.37545900	      4.14023248	      0.67576575
      4.51500000	     13.61893730	      0.49127491	      1.19687971	      0.28732419	      0.96456704	      0.02231582	    -18.34181497	      0.25725503	     -2.75749332	     -2.61406901	     20.50443622	     10.27640751	     18.26009814	      1.14728473	     -7.64022160	    -15.42240317	    -32.51605005	     13.76405932	      9.56934588	     33.19709888	    -24.44403041	      4.01413728	      0.84515351
      4.52000000	     13.61886097	      0.56642203	      1.08801522	      0.29137042	      0.96444507	      0.02222906	    -18.49235928	      0.12370879	     -2.87252057	     -2.84966153	     20.86139227	     10.63417277	     18.10109952	      1.17193683	     -7.31589529	    -15.68080781	    -30.71962597	     13.82676582	     10.31222190	     33.27290722	    -24.52551374	      3.88097092	      1.01163704
